<?xml version="1.0" encoding="UTF-8"?>
<svg id="Layer_1" xmlns="http://www.w3.org/2000/svg" version="1.1" viewBox="0 0 1152 648">
  <defs>
    <style>
      .st0 {
        fill: #0182c5;
      }
    </style>
  </defs>
  <g>
    <path class="st0" d="M158.9,260.28l-7.77,21.75-.06,13.24h65.44l.13-13.24-7.97-21.77c9.95-7.53,16.39-19.42,16.39-32.86,0-22.79-18.47-41.26-41.27-41.26s-41.26,18.48-41.26,41.28c0,13.44,6.45,25.33,16.38,32.87Z"/>
    <path class="st0" d="M300.2,385.02l-43.25-32.87-34.48,28.96-22.88-17.36-14.27,8.4-5.3-3.96,62.46-36.75c1.74,1.41,3.61,2.65,5.63,3.72,4.92,2.61,10.46,3.97,15.99,3.97,12.72,0,24.32-6.98,30.28-18.2,4.27-8.09,5.13-17.34,2.45-26.07-2.69-8.74-8.62-15.91-16.68-20.18-4.93-2.61-10.46-3.98-16.01-3.98-12.71,0-24.31,6.96-30.25,18.2-3.62,6.85-4.78,14.53-3.43,22.02l-56.45,33.2-37.76-28.83c.63-2.12,1.09-4.34,1.32-6.61,1.89-18.78-11.88-35.57-30.66-37.44-1.14-.13-2.28-.19-3.42-.19-17.65,0-32.27,13.25-34.03,30.81-1.88,18.78,11.86,35.59,30.66,37.46,1.12.12,2.28.17,3.4.17,6.72,0,13-1.92,18.29-5.27l30.03,22.92-80.72,47.47,12.04,20.52,7.58-4.45,19.22,26,18.42-10.77-13.61-29.29,11.06-6.57,12.67,15.53,20.51-12.05-8.52-17.98,21.55-12.68,10.77,8.14.07-.05,85.8,65.38,14.44-18.91-9.67-7.38,26.73-35.01ZM254.91,300.04c1.81-3.42,5.35-5.54,9.23-5.54,1.7,0,3.33.4,4.86,1.21,2.48,1.31,4.26,3.49,5.07,6.15.83,2.66.57,5.49-.73,7.94-1.81,3.43-5.35,5.56-9.23,5.56-1.7,0-3.33-.42-4.86-1.21-2.47-1.31-4.27-3.49-5.08-6.15-.82-2.66-.57-5.48.75-7.95ZM113.9,306.31c-.58,5.71-5.69,9.88-11.42,9.34-5.72-.57-9.92-5.7-9.33-11.42.54-5.34,4.97-9.39,10.35-9.39.35,0,.71.01,1.05.05,5.72.58,9.92,5.7,9.35,11.42ZM254.57,405.6l-13.18-10.07,15.08-14.51,10.38,8.46-12.27,16.11Z"/>
  </g>
  <g>
    <polygon class="st0" points="741.16 273.29 714.58 353.42 706.42 356.04 706.42 370.62 729.15 370.7 737.49 343.91 742.52 327.5 742.8 326.27 750.01 302.43 757.46 326.27 748.8 326.27 743.44 343.91 762.57 343.91 770.99 370.7 790.87 370.7 759.02 273.29 741.16 273.29"/>
    <polygon class="st0" points="452 273.29 425.43 353.43 417.52 356.05 417.52 370.62 440 370.7 446.85 348.73 453.3 327.5 453.66 326.27 460.86 302.43 468.31 326.27 458.98 326.27 453.61 343.91 473.42 343.91 481.84 370.7 501.72 370.7 469.87 273.29 452 273.29"/>
    <polygon class="st0" points="969.98 273.33 951.98 273.33 919.86 370.66 940.21 370.66 953.44 327.53 953.78 326.31 960.98 302.47 968.43 326.31 959.25 326.31 954.09 343.94 973.53 343.94 981.89 370.66 1004.48 370.66 1004.48 356.2 996.19 353.58 969.98 273.33"/>
    <polygon class="st0" points="339.07 291.38 368.23 291.38 368.23 370.62 387.05 370.62 387.05 291.38 398.96 291.38 400.73 298.89 416.12 298.89 416.2 273.29 339.07 273.29 339.07 291.38"/>
    <path class="st0" d="M671.93,273.29h-39.42v14.63l7.19,2.22-.08,80.55h25.99v-14.35l-7.18-2.46v-62.61h13.75c.09-.01.33-.03.68-.03,4.98,0,13.36,1.74,13.36,13.36s-9.83,13.34-14.06,13.34h-9.08s0,17.8,0,17.8h8.7s.52.02,1.43.02c3.15,0,11.28-.44,18.67-4.51,9.42-5.18,14.4-14.42,14.42-26.68.08-1.28.57-12.7-7.6-21.52-6.02-6.48-15.02-9.76-26.78-9.76Z"/>
    <path class="st0" d="M903.61,319.26c2.87-3.14,6.88-9.34,6.88-19.51,0-16.32-11.81-26.45-30.85-26.45h-40.61v15.36l6.67,1.93v79.82h33.76s.52.03,1.44.03c3.1,0,11.11-.41,18.39-4.17,9.34-4.8,14.29-13.43,14.29-24.94,0-12.19-5.89-18.89-9.97-22.06ZM880.57,352.73c-.37,0-.61-.01-.78-.02h-15.42v-61.41h15.58c3.29,0,10.92.99,10.92,10.17,0,8.43-5.53,10.2-10.16,10.2-.41,0-.67-.02-.87-.03h-10.13v17.67h10.13s.31-.03.73-.03c4.99,0,13.37,1.53,13.37,11.73s-8.39,11.74-13.37,11.74Z"/>
    <polygon class="st0" points="609.08 273.29 586.26 273.29 564.01 330.66 563.94 330.53 558.09 346.04 555.73 339.96 555.73 339.95 561.98 323.43 541.53 273.29 511.03 273.29 511.03 286.96 518.72 290.2 518.73 370.7 536.98 370.7 536.98 308.12 554.73 354.94 556.04 358.39 572.12 358.39 591.32 307.97 591.32 370.7 616.76 370.7 616.76 356.96 609.08 353.98 609.08 273.29"/>
    <polygon class="st0" points="1060.27 273.33 1038.3 311.5 1032.49 322.49 1029.78 318.49 1035.43 307.76 1015.7 273.29 995.23 273.29 995.23 288.1 1003.8 290.53 1028.83 331.1 1028.83 370.39 1047.01 370.39 1047.01 331.1 1082.7 273.28 1060.27 273.33"/>
  </g>
  <g>
    <g>
      <polygon class="st0" points="827.07 416.84 827.07 421.39 824.52 422.21 816.22 447.23 810.66 447.23 805.68 432.05 800.65 447.23 795.09 447.23 785.12 416.82 791.35 416.82 797.92 438.13 804.42 416.82 806.9 416.82 812.04 433.58 810.48 438.57 812.23 442.22 819.97 416.82 827.07 416.84"/>
      <polygon class="st0" points="771.31 416.71 762.98 441.81 760.42 442.63 760.42 447.2 767.54 447.23 770.16 438.83 771.73 433.69 771.82 433.31 774.08 425.84 776.42 433.31 773.7 433.31 772.02 438.83 778.02 438.83 780.66 447.23 786.88 447.23 776.9 416.71 771.31 416.71"/>
      <polygon class="st0" points="836.01 416.71 827.68 441.81 825.13 442.63 825.13 447.2 832.25 447.23 834.86 438.83 836.44 433.69 836.53 433.31 838.78 425.84 841.12 433.31 838.4 433.31 836.72 438.83 842.72 438.83 845.36 447.23 851.59 447.23 841.61 416.71 836.01 416.71"/>
      <polygon class="st0" points="595.05 416.71 586.7 441.89 584.14 442.71 584.14 447.3 591.28 447.32 593.9 438.9 595.48 433.74 595.57 433.36 597.84 425.86 600.18 433.36 597.46 433.36 595.77 438.9 601.78 438.9 604.43 447.32 610.68 447.32 600.67 416.71 595.05 416.71"/>
      <polygon class="st0" points="871.24 422.38 880.46 422.38 880.46 447.44 886.41 447.44 886.41 422.38 890.18 422.38 890.74 424.76 895.61 424.76 895.63 416.66 871.24 416.66 871.24 422.38"/>
      <polygon class="st0" points="499.3 422.53 508.43 422.53 508.43 447.34 514.32 447.34 514.32 422.53 518.05 422.53 518.6 424.88 523.42 424.88 523.45 416.86 499.3 416.86 499.3 422.53"/>
      <polygon class="st0" points="578.86 439.28 578.89 447.32 559.34 447.32 559.34 416.72 578.89 416.72 578.86 424.76 574.04 424.76 573.47 422.42 565.27 422.42 565.27 430.78 576.02 430.78 576.02 436.48 565.27 436.48 565.27 441.65 573.47 441.65 574.04 439.28 578.86 439.28"/>
      <polygon class="st0" points="721.85 439.28 721.87 447.32 702.32 447.32 702.32 416.72 721.87 416.72 721.85 424.76 717.02 424.76 716.45 422.42 708.25 422.42 708.25 430.78 719 430.78 719 436.48 708.25 436.48 708.25 441.65 716.45 441.65 717.02 439.28 721.85 439.28"/>
      <path class="st0" d="M553.66,442.78v4.55h-7.11l-2.63-10.8h-5.18v-5.78h2.83c1.33,0,4.42-.41,4.42-4.2s-2.63-4.21-4.2-4.21c-.11,0-.19.01-.21.01h-4.33l-.06,24.98h-5.85l.02-25.33-2.25-.7v-4.61h12.39c3.7,0,6.54,1.03,8.43,3.08,2.57,2.76,2.4,6.36,2.38,6.76,0,3.49-1.28,6.19-3.71,7.87l2.47,7.55,2.6.82Z"/>
      <path class="st0" d="M695.29,442.78v4.55h-7.11l-2.63-10.8h-5.18v-5.78h2.83c1.33,0,4.42-.41,4.42-4.2s-2.63-4.21-4.2-4.21c-.11,0-.19.01-.21.01h-4.33l-.06,24.98h-5.85l.02-25.33-2.25-.7v-4.61h12.39c3.7,0,6.54,1.03,8.43,3.08,2.57,2.76,2.4,6.36,2.38,6.76,0,3.49-1.28,6.19-3.71,7.87l2.47,7.55,2.6.82Z"/>
      <path class="st0" d="M625.7,429.23c-2.58-.33-4.96-.95-4.96-3.29,0-1.69.81-3.75,4.65-3.75.67,0,1.58.02,2.65.21l.41.07.07.38.33,1.55h4.89v-6.01c-2.46-1.05-5.42-1.62-8.35-1.62-8.57,0-10.36,4.99-10.36,9.16,0,5.68,2.39,7.8,9.78,8.76,2.58.29,4.56.72,4.56,3.22s-1.84,3.94-5.46,3.94c-1.19,0-2.29-.1-3.27-.29l-.38-.1-.07-.38-.26-1.26h-4.89v5.66c2.15.98,6.51,1.79,8.83,1.79,7.52,0,11.34-3.17,11.34-9.4s-3.05-7.85-9.5-8.64Z"/>
      <path class="st0" d="M912.98,429.23c-2.58-.33-4.96-.95-4.96-3.29,0-1.69.81-3.75,4.65-3.75.67,0,1.58.02,2.65.21l.41.07.07.38.33,1.55h4.89v-6.01c-2.46-1.05-5.42-1.62-8.35-1.62-8.57,0-10.36,4.99-10.36,9.16,0,5.68,2.39,7.8,9.78,8.76,2.58.29,4.56.72,4.56,3.22s-1.84,3.94-5.46,3.94c-1.19,0-2.29-.1-3.27-.29l-.38-.1-.07-.38-.26-1.26h-4.89v5.66c2.15.98,6.51,1.79,8.83,1.79,7.52,0,11.34-3.17,11.34-9.4s-3.05-7.85-9.5-8.64Z"/>
      <path class="st0" d="M650.35,422.79l-2.59.4v13.11c0,4.11,3.59,4.42,5.13,4.42s5.27-.32,5.27-4.42v-13.11l-2.85-.4v-5.84h10.26v5.84l-1.55.4v13.59c0,9.04-7.34,10.5-11.14,10.5s-11.14-1.46-11.14-10.5v-13.59l-1.58-.4v-5.84h10.17v5.84Z"/>
    </g>
    <path class="st0" d="M864.69,442.17l.11,5.04h-8.29l-.11-4.92,2.64-.3.02-25.33h7.76l.14,4.38-2.14.71-.14,20.42Z"/>
  </g>
  <g>
    <path class="st0" d="M636.05,202.96h0l10.45,17.38,1.21-20.23h0l.27-6.48,9.53-2.16,1.33,5.43-4.42,1.62-3.03,32.15-4.51,1.1-17.55-27.11-4.68.6-1.33-5.44,9.55-2.62,3.18,5.76Z"/>
    <path class="st0" d="M684.52,217.87l4.33-.08.71,5.55-10.94,1.42-.71-6.13.02.09-3.02-23.52-4.32.07-.72-5.55,10.86-1.47.71,5.55.06.55,3.02,23.53Z"/>
    <path class="st0" d="M712.31,216.51c5.45-.05,7.01-2.59,6.98-5.56-.02-2.96-1.66-3.72-5.97-4.2-8.76-1.03-12.04-3.68-12.09-10.14-.04-4.45,2.01-11.07,12.63-11.15,4.16-.04,7.71.89,10.25,2.02l-.11,7.99-5.6.05-.46-3.34c-1.39-.28-2.68-.36-4.02-.35-4.98.04-6.01,2.35-5.99,4.79.02,2.91,2.27,3.28,6.39,3.77,7.71.94,11.7,3.3,11.76,10.52.04,5.26-2.63,11.89-13.77,11.98-3.16.03-8.62-1.07-10.88-2.21l-.08-6.94c4.83,3.15,10.96,2.79,10.96,2.79Z"/>
    <path class="st0" d="M748.58,218.27l-.04.36-.7,5.55-9.68-1.31.7-5.55,3.13.11,2.97-23.52.1-.59.71-5.54,9.8,1.19-.7,5.4-3.32.37-2.98,23.53Z"/>
    <path class="st0" d="M798.45,199.53l-1.74,6-5.86-1.57h0l-4.64-1.33-6.47,22.52-.08.46-1.55,5.37-9.19-2.74,1.55-5.38,2.87.45,6.48-22.52-4.65-1.34-1.16,2.53-5.38-1.55,2.46-8.77,27.35,7.86Z"/>
  </g>
  <path class="st0" d="M297.76,443.85c0,6.93-4,8.43-8.56,8.43s-8.56-1.5-8.56-8.43,4-8.43,8.56-8.43,8.56,1.44,8.56,8.43ZM282.83,443.85c0,5.5,2.69,6.44,6.37,6.44s6.37-.94,6.37-6.44-2.69-6.44-6.37-6.44-6.37.94-6.37,6.44ZM287.64,445.16v3.19h-2v-9h4c2.31,0,3.12,1.19,3.12,2.87,0,1.19-.37,2.12-1.31,2.56l2,3.56h-2.25l-1.81-3.19h-1.75ZM289.51,441.22h-1.87v2h1.87c1,0,1.12-.44,1.12-1s-.12-1-1.12-1Z"/>
</svg>
